<?xml version="1.0" standalone="no"?>
<svg xmlns="http://www.w3.org/2000/svg" xmlns:xlink="http://www.w3.org/1999/xlink" width="364pt" height="462pt" viewBox="0.00 0.00 364.45 462">
<g id="graph0" class="graph" transform="translate(22.497660379281726,374.44912141835965) scale(0.7589096264870269)" data-name="G">

<polygon fill="#2e3e56" stroke="none" points="-4,4 -4,-458 360.45,-458 360.45,4 -4,4"/>
<g id="clust1" class="cluster" data-name="clusterGatewayRegistry">

<path fill="#445773" stroke="#445773" d="M20,-8C20,-8 246.45,-8 246.45,-8 252.45,-8 258.45,-14 258.45,-20 258.45,-20 258.45,-297 258.45,-297 258.45,-303 252.45,-309 246.45,-309 246.45,-309 20,-309 20,-309 14,-309 8,-303 8,-297 8,-297 8,-20 8,-20 8,-14 14,-8 20,-8"/>
<text text-anchor="middle" x="133.23" y="-292.4" font-family="Times,serif" font-size="14.00" fill="#f0f0f0">GatewayRegistry</text>
</g>


<g id="node1" class="node" pointer-events="visible" data-name="GatewayRegistry.onlyOwner">

<polygon fill="#edad56" stroke="#1bc6a6" stroke-width="3" points="192.17,-246.54 192.17,-261.46 157.64,-272 108.81,-272 74.28,-261.46 74.28,-246.54 108.81,-236 157.64,-236 192.17,-246.54"/>
<polygon fill="none" stroke="#1bc6a6" stroke-width="3" points="196.17,-243.58 196.17,-264.42 158.24,-276 108.21,-276 70.28,-264.42 70.28,-243.58 108.21,-232 158.24,-232 196.17,-243.58"/>
<text text-anchor="middle" x="133.23" y="-249.8" font-family="Times,serif" font-size="14.00">onlyOwner</text>
</g>

<g id="node2" class="node" pointer-events="visible" data-name="GatewayRegistry.&lt;Constructor&gt;">

<ellipse fill="#ff9797" stroke="#ff9797" stroke-width="3" cx="133.23" cy="-196" rx="67.55" ry="18"/>
<text text-anchor="middle" x="133.23" y="-191.8" font-family="Times,serif" font-size="14.00">&lt;Constructor&gt;</text>
</g>

<g id="node3" class="node" pointer-events="visible" data-name="GatewayRegistry.addGatewayIP">

<ellipse fill="#ff9797" stroke="#ff9797" stroke-width="3" cx="133.23" cy="-142" rx="67.77" ry="18"/>
<text text-anchor="middle" x="133.23" y="-137.8" font-family="Times,serif" font-size="14.00">addGatewayIP</text>
</g>

<g id="clust2" class="cluster" data-name="cluster_01">

<polygon fill="#2e3e56" stroke="black" points="60.23,-317 60.23,-446 348.45,-446 348.45,-317 60.23,-317"/>
<text text-anchor="middle" x="204.34" y="-429.4" font-family="Times,serif" font-size="14.00">Legend</text>
</g><g id="node4" class="node" pointer-events="visible" data-name="GatewayRegistry.removeGatewayIPByValue">

<ellipse fill="#ff9797" stroke="#ff9797" stroke-width="3" cx="133.23" cy="-88" rx="117.45" ry="18"/>
<text text-anchor="middle" x="133.23" y="-83.8" font-family="Times,serif" font-size="14.00">removeGatewayIPByValue</text>
</g>
<!-- EigenLayerMiddleware.initializeSystem -->
<g id="node5" class="node" pointer-events="visible" data-name="GatewayRegistry.getGatewayIPs" data-comment="EigenLayerMiddleware.initializeSystem">

<ellipse fill="#ff9797" stroke="#ff9797" stroke-width="3" cx="133.23" cy="-34" rx="69.49" ry="18"/>
<text text-anchor="middle" x="133.23" y="-29.8" font-family="Times,serif" font-size="14.00">getGatewayIPs</text>
</g>
<!-- EigenLayerMiddleware.__Ownable_init -->

<!-- EigenLayerMiddleware.initializeSystem&#45;&gt;EigenLayerMiddleware.__Ownable_init -->

<!-- EigenLayerMiddleware.ISystemParameters -->

<!-- EigenLayerMiddleware.initializeSystem&#45;&gt;EigenLayerMiddleware.ISystemParameters -->
<g id="edge1" class="edge" data-name="key-&gt;key2" data-comment="EigenLayerMiddleware.initializeSystem-&gt;EigenLayerMiddleware.ISystemParameters">

<path fill="none" stroke="rgb(27, 198, 166)" stroke-width="2" d="M191.23,-399C235.22,-399 249.31,-399 287.7,-399"/>
<polygon fill="#1bc6a6" stroke="#1bc6a6" stroke-width="2" points="287.42,-402.5 297.42,-399 287.42,-395.5 287.42,-402.5"/>
</g><g id="edge2" class="edge" data-name="key-&gt;key2" data-comment="EigenLayerMiddleware.initializeSystem-&gt;EigenLayerMiddleware.ISystemParameters">

<path fill="none" stroke="white" stroke-width="2" d="M191.23,-379C235.22,-379 249.31,-379 287.7,-379" style=""/>
<polygon fill="white" stroke="white" stroke-width="2" points="287.42,-382.5 297.42,-379 287.42,-375.5 287.42,-382.5"/>
</g>
<!-- EigenLayerMiddleware.IManager --><!-- EigenLayerMiddleware.initializeSystem&#45;&gt;EigenLayerMiddleware.IManager --><!-- EigenLayerMiddleware.IAVSDirectory --><!-- EigenLayerMiddleware.initializeSystem&#45;&gt;EigenLayerMiddleware.IAVSDirectory --><g id="node6" class="node" pointer-events="visible" data-name="key" data-comment="EigenLayerMiddleware.initializeSystem-&gt;EigenLayerMiddleware.IAVSDirectory">

<polygon fill="#edad56" stroke="none" stroke-width="3" points="198.23,-413 68.23,-413 68.23,-325 198.23,-325 198.23,-413"/>
<text text-anchor="start" x="117.86" y="-394.4" font-family="Times,serif" font-size="14.00">Internal Call</text>
<text text-anchor="start" x="113.97" y="-374.4" font-family="Times,serif" font-size="14.00">External Call</text>
<text text-anchor="start" x="91.43" y="-354.4" font-family="Times,serif" font-size="14.00">Defined Contract</text>
<text text-anchor="start" x="77.83" y="-334.4" font-family="Times,serif" font-size="14.00">Undefined Contract</text>
</g><g id="node7" class="node" pointer-events="visible" data-name="key2" data-comment="EigenLayerMiddleware.initializeSystem-&gt;EigenLayerMiddleware.IAVSDirectory">

<polygon fill="#edad56" stroke="none" stroke-width="3" points="340.45,-413 286.45,-413 286.45,-325 340.45,-325 340.45,-413"/>
<text text-anchor="start" x="303.45" y="-394.4" font-family="Times,serif" font-size="14.00">   </text>
<text text-anchor="start" x="303.45" y="-374.4" font-family="Times,serif" font-size="14.00">   </text>
<polygon fill="#445773" stroke="none" points="301.45,-349 301.45,-369 326.45,-369 326.45,-349 301.45,-349"/>
<text text-anchor="start" x="303.45" y="-354.4" font-family="Times,serif" font-size="14.00">   </text>
<polygon fill="none" stroke="#e8726d" points="303.45,-331 303.45,-347 324.45,-347 324.45,-331 303.45,-331"/>
</g></g>
</svg>